<svg width="256" height="256" viewBox="0 0 256 256" fill="none" xmlns="http://www.w3.org/2000/svg">
<g clip-path="url(#clip0_1_2)">
<g filter="url(#filter0_d_1_2)">
<circle cx="128" cy="128" r="120" fill="white"/>
</g>
<path d="M90.0756 45.0863C88.5341 45.6935 87.7766 47.4355 88.3838 48.9771L138.377 175.898C148.497 201.591 177.529 214.215 203.222 204.095L208.542 202C210.084 201.392 210.841 199.651 210.234 198.109L160.241 71.1879C150.121 45.4949 121.089 32.8707 95.3956 42.9909L90.0756 45.0863Z" fill="#6D2AFF"/>
<path d="M50.1862 176.993C61.06 202.377 90.4763 214.196 115.86 203.322L120.431 201.363L103.074 160.846C98.7249 150.692 86.968 145.987 76.8147 150.337L57.5355 158.596C50.4282 161.641 47.1416 169.886 50.1862 176.993Z" fill="#6D2AFF"/>
<rect x="49.4324" y="194.7" width="52.8126" height="55.4595" rx="26.4063" transform="rotate(-93.8155 49.4324 194.7)" fill="#6D2AFF"/>
<rect x="101.503" y="157.644" width="3.23033" height="1.37206" transform="rotate(64.429 101.503 157.644)" fill="#6D2AFF"/>
</g>
<defs>
<filter id="filter0_d_1_2" x="-2" y="2" width="260" height="260" filterUnits="userSpaceOnUse" color-interpolation-filters="sRGB">
<feFlood flood-opacity="0" result="BackgroundImageFix"/>
<feColorMatrix in="SourceAlpha" type="matrix" values="0 0 0 0 0 0 0 0 0 0 0 0 0 0 0 0 0 0 127 0" result="hardAlpha"/>
<feOffset dy="4"/>
<feGaussianBlur stdDeviation="5"/>
<feComposite in2="hardAlpha" operator="out"/>
<feColorMatrix type="matrix" values="0 0 0 0 0 0 0 0 0 0 0 0 0 0 0 0 0 0 0.2 0"/>
<feBlend mode="normal" in2="BackgroundImageFix" result="effect1_dropShadow_1_2"/>
<feBlend mode="normal" in="SourceGraphic" in2="effect1_dropShadow_1_2" result="shape"/>
</filter>
<clipPath id="clip0_1_2">
<rect width="256" height="256" fill="white"/>
</clipPath>
</defs>
</svg>
